<?xml version="1.0" encoding="UTF-8"?>
<svg id="Calque_2" data-name="Calque 2" xmlns="http://www.w3.org/2000/svg" viewBox="0 0 173.63 167.14">
  <defs>
    <style>
      .cls-1, .cls-2 {
        fill: #fff;
      }

      .cls-3 {
        fill: #2d2824;
      }

      .cls-2 {
        font-family: LeckerliOne-Regular, 'Leckerli One';
        font-size: 31.01px;
      }
    </style>
  </defs>
  <g id="OBJECTS">
    <g>
      <g>
        <path class="cls-3" d="M16.11,75.52c0,39.05,31.65,70.7,70.7,70.7s70.7-31.65,70.7-70.7H16.11Z"/>
        <text/>
        <path class="cls-3" d="M51.5,71.65c-2.64-.9-5.18-2.26-7.3-4.22-1.05-.98-2-2.11-2.76-3.37-.73-1.28-1.29-2.68-1.58-4.14-.63-2.94-.18-6.05,.98-8.79,1.15-2.76,3.03-5.16,5.27-7.1,4.49-3.91,10.45-5.79,16.27-5.9,2.92-.03,5.83,.31,8.62,1.05,2.81,.75,5.42,1.7,8.03,2.86,2.59,1.16,5.12,2.49,7.46,4.18,1.16,.85,2.29,1.77,3.29,2.85,1,1.07,1.91,2.29,2.48,3.73,.58,1.41,.72,3.22-.08,4.69-.77,1.46-2.14,2.38-3.5,2.92-1.38,.55-2.82,.77-4.24,.88-1.42,.1-2.85,.06-4.25-.09-1.4-.15-2.79-.4-4.16-.69-1.36-.31-2.73-.63-4.08-1.16-2.67-1.04-5.08-2.84-6.77-5.2-1.71-2.35-2.71-5.15-3.13-7.99-.42-2.86-.27-5.76,.26-8.59,1.09-5.64,3.79-11.02,7.92-15.17,2.06-2.07,4.47-3.85,7.16-5.11,2.69-1.26,5.62-2.01,8.58-2.23,2.95-.24,5.98,.15,8.73,.74,2.8,.58,5.58,1.38,8.27,2.48,2.69,1.1,5.27,2.53,7.63,4.32,2.33,1.83,4.55,3.97,5.94,6.97,.34,.75,.62,1.57,.75,2.49,.13,.91,.14,1.98-.36,3.09-.24,.55-.63,1.08-1.11,1.49-.49,.41-1.04,.67-1.57,.84-1.08,.32-2.03,.26-2.89,.13-1.71-.3-3.13-.94-4.45-1.67-1.32-.75-2.5-1.54-3.69-2.51-2.34-1.89-4.38-4.6-4.98-7.8-.61-3.2,.23-6.39,1.63-9,1.4-2.64,3.36-4.85,5.48-6.77,2.13-1.92,4.49-3.54,6.95-4.92,2.47-1.39,5.08-2.47,7.76-3.31,2.68-.83,5.44-1.39,8.22-1.59l.04,.36c-2.71,.5-5.35,1.29-7.88,2.31-2.53,1.03-4.94,2.33-7.22,3.78-2.27,1.47-4.4,3.15-6.27,5.06-1.87,1.9-3.47,4.05-4.57,6.34-1.1,2.3-1.57,4.81-1.02,7.07,.51,2.27,2.04,4.24,4.02,5.74,.98,.75,2.12,1.47,3.24,2.04,1.11,.59,2.27,1.05,3.3,1.2,.5,.08,.97,.05,1.22-.04,.26-.1,.28-.14,.35-.3,.18-.34,.06-1.46-.45-2.44-.99-2.04-2.79-3.94-4.8-5.49-2.03-1.56-4.34-2.82-6.76-3.87-2.42-1.05-4.96-1.84-7.56-2.44-2.64-.62-5.15-.99-7.74-.84-5.13,.24-10.08,2.44-13.88,6.02-3.79,3.58-6.57,8.35-7.89,13.5-.65,2.58-.92,5.27-.66,7.91,.26,2.63,1.03,5.25,2.51,7.44,1.48,2.18,3.61,3.93,6.1,4.91,1.23,.5,2.56,.83,3.89,1.14,1.33,.31,2.68,.51,4.03,.64,2.68,.24,5.48,.15,7.87-.88,1.17-.52,2.21-1.31,2.67-2.36,.48-1.04,.33-2.25-.19-3.35-1.07-2.23-3.22-3.96-5.43-5.38-2.25-1.42-4.71-2.54-7.23-3.49-1.26-.48-2.55-.89-3.84-1.3-1.3-.41-2.59-.79-3.88-1.07-2.58-.57-5.21-.92-7.82-.85-5.22,.02-10.42,1.66-14.47,4.87-2,1.61-3.68,3.63-4.81,5.92-1.11,2.29-1.63,4.88-1.3,7.41,.32,2.53,1.51,4.95,3.27,6.95,1.77,2,4.07,3.54,6.52,4.79l-.14,.33Z"/>
        <g>
          <g>
            <path class="cls-3" d="M131.33,36.44c.5,.96,.76,1.91,.95,2.87,.18,.96,.26,1.91,.26,2.87,0,.96-.08,1.91-.26,2.87-.19,.96-.45,1.91-.95,2.87-.5-.96-.76-1.91-.95-2.87-.18-.96-.26-1.91-.26-2.87,0-.96,.08-1.91,.26-2.87,.19-.96,.45-1.91,.95-2.87Z"/>
            <path class="cls-3" d="M131.33,57.59c.5,.96,.76,1.91,.95,2.87,.18,.96,.26,1.91,.26,2.87,0,.96-.08,1.91-.26,2.87-.19,.96-.45,1.91-.95,2.87-.5-.96-.76-1.91-.95-2.87-.18-.96-.26-1.91-.26-2.87,0-.96,.08-1.91,.26-2.87,.19-.96,.45-1.91,.95-2.87Z"/>
          </g>
          <g>
            <path class="cls-3" d="M115.02,52.75c.96-.5,1.91-.76,2.87-.95,.96-.18,1.91-.26,2.87-.26,.96,0,1.91,.08,2.87,.26,.96,.19,1.91,.45,2.87,.95-.96,.5-1.91,.76-2.87,.95-.96,.18-1.91,.26-2.87,.26-.96,0-1.91-.08-2.87-.26-.96-.19-1.91-.45-2.87-.95Z"/>
            <path class="cls-3" d="M136.17,52.75c.96-.5,1.91-.76,2.87-.95,.96-.18,1.91-.26,2.87-.26,.96,0,1.91,.08,2.87,.26,.96,.19,1.91,.45,2.87,.95-.96,.5-1.91,.76-2.87,.95-.96,.18-1.91,.26-2.87,.26-.96,0-1.91-.08-2.87-.26-.96-.19-1.91-.45-2.87-.95Z"/>
          </g>
          <g>
            <path class="cls-3" d="M119.8,41.22c1.03,.32,1.89,.82,2.7,1.36,.8,.55,1.54,1.17,2.21,1.85,.68,.68,1.3,1.41,1.85,2.21,.54,.81,1.04,1.67,1.36,2.7-1.03-.32-1.89-.81-2.7-1.36-.8-.55-1.54-1.17-2.21-1.85-.68-.68-1.29-1.41-1.84-2.21-.54-.81-1.04-1.67-1.36-2.7Z"/>
            <path class="cls-3" d="M134.75,56.17c1.03,.32,1.89,.82,2.7,1.36,.8,.55,1.54,1.17,2.21,1.85,.68,.68,1.3,1.41,1.85,2.21,.54,.81,1.04,1.67,1.36,2.7-1.03-.32-1.89-.81-2.7-1.36-.8-.55-1.54-1.17-2.21-1.85-.68-.68-1.29-1.41-1.84-2.21-.54-.81-1.04-1.67-1.36-2.7Z"/>
          </g>
          <g>
            <path class="cls-3" d="M119.8,64.29c.32-1.03,.82-1.89,1.36-2.7,.55-.8,1.17-1.54,1.84-2.21,.68-.68,1.41-1.3,2.21-1.85,.81-.54,1.67-1.04,2.7-1.36-.32,1.03-.81,1.89-1.36,2.7-.55,.8-1.17,1.54-1.85,2.21-.68,.68-1.41,1.29-2.21,1.84-.81,.54-1.67,1.04-2.7,1.36Z"/>
            <path class="cls-3" d="M134.75,49.34c.32-1.03,.82-1.89,1.36-2.7,.55-.8,1.17-1.54,1.84-2.21,.68-.68,1.41-1.3,2.21-1.85,.81-.54,1.67-1.04,2.7-1.36-.32,1.03-.81,1.89-1.36,2.7-.55,.8-1.17,1.54-1.85,2.21-.68,.68-1.41,1.29-2.21,1.85-.81,.54-1.67,1.04-2.7,1.36Z"/>
          </g>
        </g>
        <g>
          <g>
            <path class="cls-3" d="M56.1,6.22c.59,.58,.9,1.17,1.12,1.75,.21,.58,.31,1.17,.31,1.75,0,.58-.1,1.17-.3,1.75-.22,.58-.53,1.17-1.12,1.75-.59-.58-.9-1.17-1.12-1.75-.21-.58-.31-1.17-.3-1.75,0-.58,.1-1.17,.31-1.75,.22-.58,.53-1.17,1.12-1.75Z"/>
            <path class="cls-3" d="M56.1,19.15c.59,.58,.9,1.17,1.12,1.75,.21,.58,.31,1.17,.31,1.75,0,.58-.1,1.17-.3,1.75-.22,.58-.53,1.17-1.12,1.75-.59-.58-.9-1.17-1.12-1.75-.21-.58-.31-1.17-.3-1.75,0-.58,.1-1.17,.31-1.75,.22-.58,.53-1.17,1.12-1.75Z"/>
          </g>
          <g>
            <path class="cls-3" d="M46.13,16.19c.58-.59,1.17-.9,1.75-1.12,.58-.21,1.17-.31,1.75-.31,.58,0,1.17,.1,1.75,.3,.58,.22,1.17,.53,1.75,1.12-.58,.59-1.17,.9-1.75,1.12-.58,.21-1.17,.31-1.75,.3-.58,0-1.17-.1-1.75-.31-.58-.22-1.17-.53-1.75-1.12Z"/>
            <path class="cls-3" d="M59.05,16.19c.58-.59,1.17-.9,1.75-1.12,.58-.21,1.17-.31,1.75-.31,.58,0,1.17,.1,1.75,.3,.58,.22,1.17,.53,1.75,1.12-.58,.59-1.17,.9-1.75,1.12-.58,.21-1.17,.31-1.75,.3-.58,0-1.17-.1-1.75-.31-.58-.22-1.17-.53-1.75-1.12Z"/>
          </g>
          <g>
            <path class="cls-3" d="M49.05,9.14c.83,0,1.46,.19,2.03,.45,.56,.27,1.04,.61,1.46,1.02,.42,.41,.76,.89,1.03,1.46,.26,.57,.45,1.2,.45,2.03-.83,0-1.46-.19-2.03-.45-.56-.27-1.04-.61-1.46-1.03-.41-.41-.76-.9-1.02-1.46-.26-.57-.45-1.2-.45-2.03Z"/>
            <path class="cls-3" d="M58.19,18.28c.83,0,1.46,.19,2.03,.45,.56,.27,1.04,.61,1.46,1.02,.41,.41,.76,.89,1.03,1.46,.26,.57,.45,1.2,.45,2.03-.83,0-1.46-.19-2.03-.45-.56-.27-1.04-.61-1.46-1.03-.41-.41-.76-.9-1.02-1.46-.26-.57-.45-1.2-.45-2.03Z"/>
          </g>
          <g>
            <path class="cls-3" d="M49.05,23.24c0-.83,.19-1.46,.45-2.03,.27-.56,.61-1.04,1.02-1.46,.41-.41,.89-.76,1.46-1.03,.57-.26,1.2-.45,2.03-.45,0,.83-.19,1.46-.45,2.03-.27,.56-.61,1.04-1.03,1.46-.41,.41-.9,.76-1.46,1.02-.57,.26-1.2,.45-2.03,.45Z"/>
            <path class="cls-3" d="M58.19,14.1c0-.83,.19-1.46,.45-2.03,.27-.56,.61-1.04,1.02-1.46,.41-.42,.89-.76,1.46-1.03,.57-.26,1.2-.45,2.03-.45,0,.83-.19,1.46-.45,2.03-.27,.56-.61,1.04-1.03,1.46-.41,.41-.9,.76-1.46,1.02-.57,.26-1.2,.45-2.03,.45Z"/>
          </g>
        </g>
        <text class="cls-2" transform="translate(45.71 102.69)"><tspan x="0" y="0">Black</tspan></text>
        <text class="cls-2" transform="translate(48.73 128.67)"><tspan x="0" y="0">Bowl</tspan></text>
        <g>
          <path class="cls-3" d="M47.02,60.87l-10.24-11.45,1.17-1.04,10.24,11.45c.42,.47,1.14,.51,1.61,.09h0c.47-.42,.51-1.14,.09-1.61l-10.24-11.45,1.17-1.04,10.24,11.45c.42,.47,1.14,.51,1.61,.09h0c.47-.42,.51-1.14,.09-1.61l-10.24-11.45,1.17-1.04,10.24,11.45c.42,.47,1.14,.51,1.61,.09l.21-.19c.47-.42,.51-1.14,.09-1.61l-16.97-18.97c-1.35-1.51-3.18-2.31-5.05-2.39-1.75-.07-3.4-.82-4.57-2.12L8.86,5.82c-.98-1.1-2.62-1.44-3.88-.68-1.7,1.02-1.98,3.25-.73,4.65l20.45,23.79c1.17,1.3,1.72,3.03,1.6,4.77-.13,1.87,.47,3.78,1.81,5.28l16.97,18.97c.42,.47,1.14,.51,1.61,.09l.24-.21c.47-.42,.51-1.14,.09-1.61Z"/>
          <path class="cls-1" d="M32.39,34.47c1.07-.2,2.19-.21,3.28,.03,.55,.12,1.09,.34,1.59,.66,.49,.3,.91,.88,1.16,1.29,1.19,1.76,2.52,3.45,3.71,5.27-1.64-1.43-3.09-3.05-4.33-4.85-.31-.51-.54-.82-.95-1.12-.39-.29-.85-.51-1.34-.68-.98-.32-2.05-.5-3.13-.59Z"/>
        </g>
      </g>
      <path class="cls-1" d="M134.35,82.77c1.44-.08,2.89-.14,4.33-.19,1.44-.05,2.89-.12,4.33-.14l4.33-.1c1.44-.03,2.89-.08,4.33-.08,.29,0,.52,.23,.52,.52,0,.23-.15,.42-.35,.49l-5.83,2.06-5.83,2.05-.12-1.16c3.09,.41,6.17,.83,9.26,1.28h.01c.29,.04,.49,.31,.45,.6-.03,.19-.16,.34-.32,.41-2.56,1.05-5.15,2.04-7.72,3.06l-.03-.66c1.74,.57,3.46,1.17,5.18,1.78h.01c.09,.04,.14,.14,.11,.23-.02,.05-.05,.09-.1,.1-1.23,.49-2.46,.98-3.7,1.45,1.18-.61,2.36-1.19,3.55-1.77l.02,.33c-1.77-.47-3.53-.94-5.29-1.44-.19-.05-.29-.25-.24-.44,.03-.1,.1-.18,.19-.22h.01c2.53-1.13,5.05-2.29,7.59-3.39l.14,1.01c-3.09-.36-6.19-.74-9.27-1.14-.33-.04-.56-.34-.52-.67,.03-.23,.19-.42,.4-.49l5.85-1.98,5.86-1.97,.17,1.01c-1.44,0-2.89-.06-4.33-.08l-4.33-.1c-1.44-.02-2.89-.09-4.33-.14-1.44-.05-2.89-.11-4.33-.19Z"/>
    </g>
  </g>
</svg>